<?xml version="1.0" encoding="UTF-8" standalone="no"?>
<svg
   height="160"
   width="160"
   version="1.0"
   id="svg79"
   sodipodi:docname="about.svg"
   inkscape:version="1.1.2 (0a00cf5339, 2022-02-04)"
   inkscape:export-xdpi="14.4"
   inkscape:export-ydpi="14.4"
   xmlns:inkscape="http://www.inkscape.org/namespaces/inkscape"
   xmlns:sodipodi="http://sodipodi.sourceforge.net/DTD/sodipodi-0.dtd"
   xmlns="http://www.w3.org/2000/svg"
   xmlns:svg="http://www.w3.org/2000/svg">
  <defs
     id="defs83" />
  <sodipodi:namedview
     id="namedview81"
     pagecolor="#ffffff"
     bordercolor="#666666"
     borderopacity="1.0"
     inkscape:pageshadow="2"
     inkscape:pageopacity="0.0"
     inkscape:pagecheckerboard="0"
     showgrid="false"
     inkscape:zoom="1.8953379"
     inkscape:cx="207.35089"
     inkscape:cy="71.491211"
     inkscape:window-width="1720"
     inkscape:window-height="1355"
     inkscape:window-x="26"
     inkscape:window-y="23"
     inkscape:window-maximized="0"
     inkscape:current-layer="svg79" />
  <g
     fill="#4b4b4b"
     id="g77"
     transform="matrix(1.1379905,0,0,1.1379905,-11.03924,-11.03924)">
    <path
       d="m 80,15 c -35.88,0 -65,29.12 -65,65 0,35.88 29.12,65 65,65 35.88,0 65,-29.12 65,-65 0,-35.88 -29.12,-65 -65,-65 z m 0,10 c 30.36,0 55,24.64 55,55 0,30.36 -24.64,55 -55,55 C 49.64,135 25,110.36 25,80 25,49.64 49.64,25 80,25 Z"
       id="path71" />
    <path
       d="m 57.373,18.231 a 9.3835,9.1153971 0 1 1 -18.767,0 9.3835,9.1153971 0 1 1 18.767,0 z"
       transform="matrix(1.1989,0,0,1.2342,21.214,28.75)"
       id="path73" />
    <path
       d="m 90.665,110.96 c -0.069,2.73 1.211,3.5 4.327,3.82 l 5.008,0.1 V 120 H 60.927 v -5.12 l 5.503,-0.1 c 3.291,-0.1 4.082,-1.38 4.327,-3.82 V 80.147 C 70.792,75.268 64.461,76.034 60,76.179 V 71.105 L 90.665,70"
       id="path75" />
  </g>
</svg>
