<?xml version="1.0" encoding="UTF-8" standalone="no"?>
<svg
   viewBox="0 0 16 16"
   version="1.1"
   id="svg117"
   sodipodi:docname="home.svg"
   inkscape:export-filename="/home/matthi/git/proxy/src/main/resources/com/baloise/proxy/ui/home.png"
   inkscape:export-xdpi="144"
   inkscape:export-ydpi="144"
   inkscape:version="1.1.2 (0a00cf5339, 2022-02-04)"
   xmlns:inkscape="http://www.inkscape.org/namespaces/inkscape"
   xmlns:sodipodi="http://sodipodi.sourceforge.net/DTD/sodipodi-0.dtd"
   xmlns="http://www.w3.org/2000/svg"
   xmlns:svg="http://www.w3.org/2000/svg">
  <defs
     id="defs121" />
  <sodipodi:namedview
     id="namedview119"
     pagecolor="#ffffff"
     bordercolor="#666666"
     borderopacity="1.0"
     inkscape:pageshadow="2"
     inkscape:pageopacity="0.0"
     inkscape:pagecheckerboard="0"
     showgrid="false"
     inkscape:zoom="24.517211"
     inkscape:cx="3.7116783"
     inkscape:cy="14.785532"
     inkscape:window-width="3440"
     inkscape:window-height="1355"
     inkscape:window-x="0"
     inkscape:window-y="0"
     inkscape:window-maximized="1"
     inkscape:current-layer="svg117" />
  <path
     style="line-height:normal;text-indent:0;text-align:start;text-decoration-line:none;text-decoration-style:solid;text-decoration-color:#000;text-transform:none;block-progression:tb;isolation:auto;mix-blend-mode:normal"
     d="M 2.5 2 C 1.6774686 2 1 2.6774686 1 3.5 L 1 4 L 1 5 L 1 12.5 C 1 13.322531 1.6774686 14 2.5 14 L 13.5 14 C 14.322531 14 15 13.322531 15 12.5 L 15 5.5 C 15 4.6774686 14.322531 4 13.5 4 L 6.7988281 4 L 6.1445312 2.7871094 C 5.8835911 2.3027204 5.3751898 2 4.8242188 2 L 2.5 2 z M 2.5 3 L 4.8242188 3 C 5.0092476 3 5.176612 3.1001077 5.2636719 3.2617188 L 5.6621094 4 L 2 4 L 2 3.5 C 2 3.2185314 2.2185314 3 2.5 3 z M 2 5 L 7.3378906 5 L 13.5 5 C 13.781469 5 14 5.2185314 14 5.5 L 14 12.5 C 14 12.781469 13.781469 13 13.5 13 L 2.5 13 C 2.2185314 13 2 12.781469 2 12.5 L 2 5 z"
     font-weight="400"
     font-family="sans-serif"
     white-space="normal"
     overflow="visible"
     id="path115" />
</svg>
